<svg width="160" height="100" viewBox="0 0 160 100" fill="none" xmlns="http://www.w3.org/2000/svg">
<g id="Frame 4">
<g id="logo-animation">
<g id="group-1">
<path id="vector-1" d="M64 30C52.9543 30 44 38.9543 44 50C44 61.0457 52.9543 70 64 70C75.0457 70 84 61.0457 84 50C84 43.3726 89.3726 38 96 38" stroke="white" stroke-width="1.4"/>
<path id="vector-2" d="M64 34C55.1634 34 48 41.1634 48 50C48 58.8366 55.1634 66 64 66C72.8366 66 80 58.8366 80 50C80 41.1634 87.1634 34 96 34" stroke="white" stroke-width="1.4"/>
<path id="vector-3" d="M64 38C57.3726 38 52 43.3726 52 50C52 56.6274 57.3726 62 64 62C70.6274 62 76 56.6274 76 50C76 38.9543 84.9543 30 96 30" stroke="white" stroke-width="1.4"/>
</g>
<g id="group-2">
<path id="vector-7" d="M108 50C108 56.6274 102.627 62 96 62C89.3726 62 84 56.6274 84 50" stroke="white" stroke-width="1.4"/>
<path id="vector-6" d="M112 50C112 58.8366 104.837 66 96 66C90.1563 66 85.0443 62.8672 82.2519 58.1895" stroke="white" stroke-width="1.4"/>
<path id="vector-5" d="M116 50C116 61.0457 107.046 70 96 70C89.4576 70 83.6489 66.8586 80 62.0019" stroke="white" stroke-width="1.4"/>
</g>
</g>
</g>
</svg>
